<svg version="1.2" baseProfile="tiny-ps" xmlns="http://www.w3.org/2000/svg" viewBox="0 0 48 48" width="48" height="48">
	<title>close-svg</title>
	<style>
		tspan { white-space:pre }
		.shp0 { fill: #ffffff } 
	</style>
	<g id="Layer">
		<g id="Layer">
			<path id="Layer" class="shp0" d="M26.2 26.18L45.8 26.18C47.01 26.18 48 25.2 48 23.98C48 22.76 47.01 21.78 45.8 21.78L26.2 21.78L26.2 2.18C26.2 0.97 25.22 -0.02 24 -0.02C22.78 -0.02 21.8 0.97 21.8 2.18L21.8 21.78L2.2 21.78C0.99 21.78 0 22.76 0 23.98C0 24.59 0.25 25.14 0.65 25.54C1.04 25.94 1.59 26.18 2.2 26.18L21.8 26.18L21.8 45.78C21.8 46.39 22.04 46.94 22.44 47.33C22.84 47.73 23.39 47.98 24 47.98C25.22 47.98 26.2 46.99 26.2 45.78L26.2 26.18Z" />
		</g>
		<g id="Layer">
		</g>
		<g id="Layer">
		</g>
		<g id="Layer">
		</g>
		<g id="Layer">
		</g>
		<g id="Layer">
		</g>
		<g id="Layer">
		</g>
		<g id="Layer">
		</g>
		<g id="Layer">
		</g>
		<g id="Layer">
		</g>
		<g id="Layer">
		</g>
		<g id="Layer">
		</g>
		<g id="Layer">
		</g>
		<g id="Layer">
		</g>
		<g id="Layer">
		</g>
		<g id="Layer">
		</g>
	</g>
</svg>