<svg version="1.2" baseProfile="tiny-ps" xmlns="http://www.w3.org/2000/svg" viewBox="0 0 445 445" width="445" height="445">
	<title>arrow-down-svg</title>
	<style>
		tspan { white-space:pre }
		.shp0 { fill: #525252 } 
	</style>
	<g id="Layer">
		<g id="Layer">
			<path id="Layer" class="shp0" d="M114.2 10.75L92.79 32.16C85.75 39.58 82.23 48.24 82.23 58.13C82.23 68.23 85.75 76.79 92.79 83.83L231.55 222.59L92.79 361.35C85.75 368.39 82.23 376.95 82.23 387.04C82.23 396.94 85.75 405.6 92.79 413.02L114.21 434.15C121.44 441.38 130.1 445 140.19 445C150.46 445 159.03 441.38 165.88 434.15L351.75 248.29C358.98 241.43 362.59 232.87 362.59 222.59C362.59 212.5 358.98 203.84 351.75 196.61L165.88 10.75C158.84 3.71 150.27 0.18 140.19 0.18C130.29 0.18 121.63 3.7 114.2 10.75Z" />
		</g>
		<g id="Layer">
		</g>
		<g id="Layer">
		</g>
		<g id="Layer">
		</g>
		<g id="Layer">
		</g>
		<g id="Layer">
		</g>
		<g id="Layer">
		</g>
		<g id="Layer">
		</g>
		<g id="Layer">
		</g>
		<g id="Layer">
		</g>
		<g id="Layer">
		</g>
		<g id="Layer">
		</g>
		<g id="Layer">
		</g>
		<g id="Layer">
		</g>
		<g id="Layer">
		</g>
		<g id="Layer">
		</g>
	</g>
</svg>